<svg xmlns="http://www.w3.org/2000/svg" viewBox="0 13 60 36" data-asc="0.968">
  <g fill="#fff" transform="translate(6, 0)">
    <path d="M0 48.40L0 13.40L6.50 13.40L6.50 42.90L24.80 42.90L24.80 48.40L0 48.40Z"/>
  </g>
  <g fill="#fff" transform="translate(22, 0.1)">
    <path d="M18.85 48.90Q14.75 48.90 11.32 47.57Q7.90 46.25 5.35 43.82Q2.80 41.40 1.40 38.10Q0 34.80 0 30.90Q0 27.00 1.40 23.70Q2.80 20.40 5.38 17.97Q7.95 15.55 11.40 14.22Q14.85 12.90 18.95 12.90Q23.40 12.90 26.98 14.35Q30.55 15.80 33 18.60L28.90 22.60Q26.85 20.55 24.48 19.57Q22.10 18.60 19.25 18.60Q16.50 18.60 14.15 19.50Q11.80 20.40 10.10 22.05Q8.40 23.70 7.48 25.95Q6.55 28.20 6.55 30.90Q6.55 33.55 7.48 35.80Q8.40 38.05 10.10 39.72Q11.80 41.40 14.10 42.30Q16.40 43.20 19.20 43.20Q21.80 43.20 24.23 42.38Q26.65 41.55 28.85 39.60L32.55 44.45Q29.80 46.65 26.18 47.77Q22.55 48.90 18.85 48.90M26.40 43.60L26.40 30.50L32.55 30.50L32.55 44.45L26.40 43.60Z"/>
  </g>
</svg>
